<svg width="24" height="25" viewBox="0 0 24 25" fill="none" xmlns="http://www.w3.org/2000/svg">
<path d="M16.3748 3.48471C17.5342 3.48817 18.6451 3.95025 19.4648 4.77003C20.2846 5.58981 20.7467 6.70068 20.7502 7.86002V16.6097C20.7467 17.769 20.2846 18.8799 19.4648 19.6997C18.6451 20.5195 17.5342 20.9816 16.3748 20.985H7.62516C6.46582 20.9816 5.35495 20.5195 4.53517 19.6997C3.71539 18.8799 3.25331 17.769 3.24984 16.6097V7.86002C3.25331 6.70068 3.71539 5.58981 4.53517 4.77003C5.35495 3.95025 6.46582 3.48817 7.62516 3.48471H16.3748ZM16.3748 1.73486H7.62516C4.25625 1.73486 1.5 4.49111 1.5 7.86002V16.6097C1.5 19.9786 4.25625 22.7349 7.62516 22.7349H16.3748C19.7437 22.7349 22.5 19.9786 22.5 16.6097V7.86002C22.5 4.49111 19.7437 1.73486 16.3748 1.73486Z" fill="#93B1CA"/>
<path d="M17.6873 7.85999C17.4278 7.85999 17.174 7.78301 16.9582 7.63879C16.7423 7.49457 16.5741 7.28959 16.4748 7.04976C16.3754 6.80993 16.3494 6.54603 16.4001 6.29143C16.4507 6.03683 16.5757 5.80296 16.7593 5.61941C16.9428 5.43585 17.1767 5.31085 17.4313 5.26021C17.6859 5.20956 17.9498 5.23555 18.1896 5.33489C18.4294 5.43423 18.6344 5.60246 18.7786 5.8183C18.9229 6.03414 18.9998 6.2879 18.9998 6.54749C19.0002 6.71995 18.9665 6.89079 18.9007 7.0502C18.8349 7.2096 18.7382 7.35444 18.6163 7.47639C18.4943 7.59834 18.3495 7.695 18.1901 7.76083C18.0306 7.82666 17.8598 7.86036 17.6873 7.85999ZM12 8.73467C12.6923 8.73467 13.369 8.93995 13.9446 9.32456C14.5202 9.70916 14.9688 10.2558 15.2337 10.8954C15.4986 11.5349 15.568 12.2387 15.4329 12.9177C15.2978 13.5966 14.9645 14.2203 14.475 14.7098C13.9855 15.1993 13.3618 15.5327 12.6828 15.6677C12.0039 15.8028 11.3001 15.7335 10.6606 15.4686C10.021 15.2036 9.47433 14.755 9.08973 14.1794C8.70513 13.6038 8.49985 12.9271 8.49985 12.2348C8.50084 11.3068 8.86992 10.4171 9.52611 9.76094C10.1823 9.10475 11.072 8.73567 12 8.73467ZM12 6.98483C10.9617 6.98483 9.94662 7.29274 9.08326 7.86961C8.2199 8.44649 7.54699 9.26643 7.14963 10.2257C6.75227 11.1851 6.64831 12.2407 6.85088 13.2591C7.05345 14.2775 7.55347 15.2129 8.28769 15.9471C9.02192 16.6814 9.95738 17.1814 10.9758 17.384C11.9942 17.5865 13.0498 17.4826 14.0091 17.0852C14.9684 16.6878 15.7883 16.0149 16.3652 15.1516C16.9421 14.2882 17.25 13.2732 17.25 12.2348C17.25 10.8424 16.6969 9.50709 15.7123 8.52252C14.7277 7.53795 13.3924 6.98483 12 6.98483Z" fill="#93B1CA"/>
</svg>
