<svg width="24" height="25" viewBox="0 0 24 25" fill="none" xmlns="http://www.w3.org/2000/svg">
<path d="M6.86691 21.2349H3V9.21136H6.86691V21.2349ZM5.06721 7.38329H5.0395C3.80194 7.38329 3.0006 6.46202 3.0006 5.30877C3.0006 4.13444 3.82303 3.23486 5.0883 3.23486C6.35357 3.23486 7.1278 4.12781 7.15551 5.30877C7.15491 6.46202 6.35357 7.38329 5.06721 7.38329ZM20.9994 21.2349H17.1325V14.6607C17.1325 13.0856 16.5697 12.0095 15.1707 12.0095C14.1019 12.0095 13.4692 12.7326 13.1878 13.4369C13.0824 13.69 13.0541 14.0346 13.0541 14.3865V21.2349H9.18718V9.21136H13.0541V10.8846C13.6168 10.0832 14.4959 8.92998 16.5414 8.92998C19.0798 8.92998 21 10.6032 21 14.2106L20.9994 21.2349Z" fill="#93B1CA"/>
</svg>
