<svg width="24" height="25" viewBox="0 0 24 25" fill="none" xmlns="http://www.w3.org/2000/svg">
<path d="M23.9955 4.79261C23.1128 5.18486 22.1655 5.44961 21.168 5.56736C22.1843 4.95836 22.965 3.99386 23.3333 2.84486C22.3808 3.40736 21.3285 3.81986 20.2073 4.03886C19.3088 3.08261 18.0293 2.48486 16.6133 2.48486C13.8938 2.48486 11.691 4.68836 11.691 7.40711C11.691 7.79261 11.7338 8.16911 11.8185 8.52911C7.72575 8.32211 4.09875 6.36236 1.671 3.38486C1.24725 4.11236 1.0035 4.95836 1.0035 5.85986C1.0035 7.56986 1.8735 9.07511 3.1935 9.95861C2.3865 9.93236 1.6275 9.71111 0.96375 9.34361V9.40361C0.96375 11.7901 2.65875 13.7799 4.91175 14.2321C4.49925 14.3446 4.06425 14.4046 3.61425 14.4046C3.297 14.4046 2.9895 14.3746 2.6895 14.3169C3.315 16.2714 5.1345 17.6949 7.287 17.7354C5.60325 19.0554 3.48075 19.8429 1.1745 19.8429C0.777 19.8429 0.38475 19.8204 0 19.7754C2.1795 21.1704 4.767 21.9849 7.54725 21.9849C16.6013 21.9849 21.5535 14.4849 21.5535 7.97861C21.5535 7.76561 21.5475 7.55261 21.5385 7.34111C22.5008 6.64736 23.3348 5.78111 23.9955 4.79261Z" fill="#93B1CA"/>
</svg>
